<?xml version="1.0" standalone="no"?>
<!DOCTYPE svg PUBLIC "-//W3C//DTD SVG 1.1//EN" "http://www.w3.org/Graphics/SVG/1.1/DTD/svg11.dtd" >
<svg xmlns="http://www.w3.org/2000/svg">
<metadata>Generated by IcoMoon</metadata>
<defs>
<font id="icomoon" horiz-adv-x="1024">
<font-face units-per-em="1024" ascent="960" descent="-64" />
<missing-glyph horiz-adv-x="1024" />
<glyph unicode="&#x20;" horiz-adv-x="512" d="" />
<glyph unicode="&#xe900;" glyph-name="ico-sheare" d="M721.926 412.451c-28.192-0.023-55.962-6.914-80.902-20.077-24.939-13.164-46.306-32.205-62.255-55.481l-242.724 109.716c17.24 41.676 17.307 88.487 0.186 130.212l242.388 110.277c23.637-34.224 58.745-58.833 98.954-69.363 40.211-10.531 82.854-6.285 120.205 11.966s66.931 49.3 83.373 87.514c16.442 38.214 18.656 81.061 6.246 120.771s-38.63 73.65-73.894 95.666c-35.27 22.016-77.248 30.648-118.33 24.332s-78.54-27.164-105.582-58.761c-27.042-31.596-41.876-71.85-41.811-113.457 0.158-9.848 1.156-19.665 2.983-29.343l-257.677-117.22c-24.748 23.212-55.731 38.682-89.14 44.508s-67.792 1.756-98.923-11.711c-31.131-13.467-57.654-35.744-76.312-64.095s-28.637-61.539-28.711-95.489c-0.075-33.95 9.759-67.183 28.292-95.615s44.959-50.826 76.030-64.429c31.071-13.604 65.436-17.825 98.87-12.146s64.485 21.012 89.335 44.115l258.349-116.769c-1.795-9.67-2.78-19.475-2.946-29.306-0.008-34.464 10.194-68.154 29.315-96.813 19.12-28.653 46.301-50.995 78.102-64.186s66.797-16.64 100.563-9.92c33.76 6.72 64.774 23.315 89.114 47.68 24.346 24.371 40.922 55.418 47.635 89.216 6.714 33.805 3.264 68.838-9.914 100.672-13.178 31.838-35.488 59.048-64.115 78.189s-62.278 29.354-96.704 29.347zM721.926 885.328c19.674 0.008 38.906-5.826 55.264-16.761s29.114-26.483 36.646-44.675c7.533-18.192 9.51-38.212 5.677-57.528s-13.306-37.059-27.213-50.988c-13.907-13.928-31.629-23.414-50.918-27.258-19.296-3.845-39.296-1.875-57.466 5.659-18.176 7.535-33.715 20.296-44.642 36.67-10.93 16.374-16.764 35.624-16.764 55.318 0.020 26.393 10.499 51.7 29.137 70.367 18.643 18.666 43.917 29.167 70.278 29.196zM175.025 412.451c-19.672-0.007-38.904 5.826-55.263 16.761s-29.114 26.483-36.646 44.675c-7.533 18.192-9.508 38.212-5.675 57.528s13.302 37.060 27.21 50.988c13.908 13.928 31.629 23.414 50.922 27.258s39.292 1.875 57.467-5.659c18.175-7.535 33.71-20.296 44.64-36.67s16.764-35.624 16.764-55.318c-0.030-26.39-10.513-51.692-29.149-70.356s-43.906-29.167-70.268-29.207zM721.926 138.701c-19.667 0-38.899 5.837-55.251 16.781-16.358 10.938-29.103 26.49-36.631 44.678-7.527 18.195-9.497 38.214-5.66 57.53 3.837 19.309 13.309 37.050 27.219 50.976 13.907 13.923 31.629 23.405 50.925 27.247 19.29 3.841 39.283 1.869 57.459-5.666 18.17-7.535 33.702-20.295 44.634-36.673 10.925-16.371 16.762-35.622 16.762-55.309-0.019-26.4-10.502-51.712-29.152-70.381s-43.93-29.165-70.304-29.184z" />
<glyph unicode="&#xe901;" glyph-name="ico-info1" d="M512 896c247.424 0 448-200.577 448-448s-200.576-448-448-448c-247.423 0-448 200.576-448 448s200.577 448 448 448zM512 832c-212.077 0-384-171.923-384-384s171.923-384 384-384c212.077 0 384 171.923 384 384s-171.923 384-384 384zM512 518c23.196 0 42-18.804 42-42v-224c0-23.194-18.804-42.003-42-42.003s-42 18.81-42 42.003v224c0 23.196 18.804 42 42 42zM512 644c23.196 0 42-18.804 42-42s-18.804-42-42-42c-23.196 0-42 18.804-42 42s18.804 42 42 42z" />
<glyph unicode="&#xe902;" glyph-name="ico-info2" d="M512 896c247.422 0 448-200.576 448-448 0-247.422-200.578-448-448-448-247.424 0-448 200.578-448 448 0 247.424 200.576 448 448 448zM512 861.867c-228.572 0-413.867-185.295-413.867-413.867 0-228.574 185.295-413.867 413.867-413.867 228.574 0 413.867 185.293 413.867 413.867 0 228.572-185.293 413.867-413.867 413.867zM512 518.001c23.197 0 42.001-18.804 42.001-42.001v-224c0-23.197-18.804-42.001-42.001-42.001s-42.001 18.804-42.001 42.001v224c0 23.197 18.804 42.001 42.001 42.001zM512 644c23.197 0 42.001-18.804 42.001-42.001s-18.804-42.001-42.001-42.001c-23.197 0-42.001 18.804-42.001 42.001s18.804 42.001 42.001 42.001z" />
<glyph unicode="&#xe903;" glyph-name="ico-trash" d="M665.626 844.813c49.472-0.014 89.562-40.149 89.562-89.626v-38.374h115.187c21.21 0 38.438-17.23 38.438-38.438-0.013-21.196-17.235-38.375-38.438-38.375h-12.749v-473.626c-0.013-77.747-63.066-140.742-140.813-140.749h-409.626c-77.747 0.006-140.799 63.002-140.812 140.749v473.626h-12.75c-21.199 0-38.424 17.179-38.438 38.375 0 21.208 17.23 38.438 38.438 38.438h115.188v38.374c0 49.476 40.089 89.612 89.562 89.626h307.251zM243.187 166.374c0.014-35.328 28.668-63.994 64-64h409.626c35.334 0.006 63.987 28.672 64 64v473.626h-537.626v-473.626zM409.625 512c21.188-0.013 38.362-17.187 38.375-38.375v-230.438c-0.007-21.19-17.183-38.362-38.375-38.374-21.204 0-38.431 17.171-38.438 38.374v230.438c0.014 21.196 17.238 38.375 38.438 38.375zM614.375 512c21.199 0 38.425-17.179 38.438-38.375v-230.438c-0.006-21.203-17.235-38.374-38.438-38.374-21.192 0.013-38.368 17.184-38.375 38.374v230.438c0.013 21.188 17.187 38.362 38.375 38.375zM358.375 768c-7.058-0.013-12.75-5.752-12.75-12.813v-38.374h332.749v38.374c0 7.061-5.69 12.799-12.749 12.813h-307.251z" />
<glyph unicode="&#xe904;" glyph-name="ico-clock" d="M496 896.008c238.586 0 432-193.413 432-432s-193.414-432.001-432-432.001c-238.587 0-432 193.414-432 432.001s193.413 432 432 432zM496 815.008c-193.852 0-351-157.148-351-351s157.148-351.003 351-351.003c193.85 0 351.002 157.152 351.002 351.003 0 193.852-157.152 351-351.002 351zM496 747.508c22.367-0.001 40.5-18.133 40.5-40.5v-270c0-15.34-8.655-29.389-22.375-36.25l-162-81.001c-20.006-10.003-44.371-1.882-54.375 18.126-10.003 20.006-1.881 44.372 18.125 54.375l139.625 69.75v245c0 22.367 18.132 40.5 40.5 40.5z" />
<glyph unicode="&#xe905;" glyph-name="ico-refresh" d="M179.187 498.875c21.199 0 38.422-17.18 38.438-38.375 0-169.479 137.395-306.874 306.875-306.874 84.012 0.006 160.185 33.741 215.628 88.499h-56.314c-21.197 0.006-38.368 17.184-38.374 38.374 0 21.203 17.171 38.432 38.374 38.438h135.373c21.21 0 38.438-17.229 38.438-38.438v-138.752c-0.006-21.203-17.235-38.374-38.438-38.374-21.197 0.006-38.368 17.178-38.374 38.374v33.254c-67.917-61.018-157.771-98.182-256.313-98.189-211.896 0-383.687 171.789-383.687 383.687 0.015 21.191 17.182 38.369 38.374 38.375zM499.5 819.187c211.898 0 383.687-171.791 383.687-383.687-0.013-21.191-17.184-38.369-38.374-38.375-21.197 0-38.426 17.18-38.438 38.375 0 169.48-137.395 306.875-306.874 306.875-84.012-0.008-160.182-33.738-215.625-88.5h56.312c21.193-0.009 38.364-17.183 38.375-38.375 0-21.203-17.175-38.429-38.375-38.438h-135.375c-21.208 0-38.438 17.23-38.438 38.438v138.75c0.005 21.203 17.233 38.375 38.438 38.375 21.199-0.007 38.37-17.176 38.374-38.375v-33.251c67.914 61.016 157.77 98.18 256.313 98.188z" />
<glyph unicode="&#xe906;" glyph-name="ico-close" d="M776.621 769.125c15.597 15.585 40.902 15.588 56.499 0 15.59-15.593 15.584-40.904 0-56.5l-264.626-264.625 264.626-264.627c15.59-15.597 15.59-40.902 0-56.499-15.597-15.59-40.902-15.584-56.499 0l-264.627 264.627-264.625-264.627c-15.597-15.584-40.908-15.59-56.5 0-15.588 15.59-15.581 40.909 0 56.499l264.625 264.627-264.625 264.625c-15.58 15.596-15.589 40.909 0 56.5 15.591 15.591 40.903 15.581 56.5 0l264.625-264.625 264.627 264.625z" />
<glyph unicode="&#xe907;" glyph-name="ico-sound" d="M960 541.333c0 45.136-32.070 82.806-74.669 91.467v263.2h-74.662c0-101.883-144.781-149.333-242.669-149.333h-392c-61.749 0-112-50.251-112-112v-186.667c0-55.44 40.507-101.584 93.445-110.432l123.088-337.568h91.392c34.907 0 67.051 17.472 86.128 46.739 19.003 29.274 21.878 65.786 8.55 95.648l-72.651 193.65h174.048c97.888 0 242.669-47.448 242.669-149.336h74.662v263.203c42.598 8.661 74.669 46.293 74.669 91.467v-0.038zM138.667 448v186.667c0 20.57 16.762 37.333 37.333 37.333h149.333v-261.333h-149.333c-20.571 0-37.333 16.762-37.333 37.333zM397.536 114.125c3.883-8.736 3.099-18.701-2.091-26.688-5.189-7.994-14-12.768-23.482-12.768h-39.163l-95.275 261.331h76.72l83.291-221.875zM568 410.667h-168v261.333h168c89.677 0 181.139 27.701 242.669 77.877v-417.125c-61.53 50.176-152.992 77.877-242.669 77.877v0.038z" />
<glyph unicode="&#xe908;" glyph-name="ico-check" d="M908.922 743.060c16.698-16.398 16.934-43.226 0.538-59.921l-499.428-508.47c-8.537-8.691-20.403-13.286-32.567-12.614s-23.452 6.547-30.979 16.128l-235.025 299.1c-14.459 18.401-11.263 45.038 7.137 59.497s45.038 11.263 59.497-7.137l205.249-261.206 465.656 474.088c16.403 16.695 43.226 16.936 59.923 0.537z" />
<glyph unicode="&#xe909;" glyph-name="ico-minus" d="M855.686 499.187c22.259 0 40.314-18.057 40.314-40.312-0.013-22.242-18.067-40.25-40.314-40.25h-687.374c-22.245 0-40.297 18.008-40.312 40.25 0 22.255 18.058 40.312 40.312 40.312h687.374z" />
<glyph unicode="&#xe90a;" glyph-name="ico-plus" d="M512 806.375c22.248 0 40.301-18.005 40.312-40.25v-303.437h303.374c22.259 0 40.314-18.058 40.314-40.312-0.013-22.244-18.067-40.25-40.314-40.25h-303.374v-303.437c-0.004-22.253-18.060-40.314-40.312-40.314s-40.308 18.061-40.312 40.314v303.437h-303.375c-22.246 0-40.299 18.006-40.312 40.25 0 22.255 18.058 40.312 40.312 40.312h303.375v303.437c0.012 22.246 18.065 40.25 40.312 40.25z" />
<glyph unicode="&#xe90b;" glyph-name="ico-ring-active" d="M211.23 209.85h601.506c18.515 0 36.755 4.422 53.178 12.896s30.547 20.749 41.184 35.782c10.63 15.034 17.453 32.39 19.898 50.598 2.438 18.207 0.422 36.73-5.875 54.001l-109.574 300.573c-18.714 66.796-58.963 125.672-114.598 167.624-55.629 41.951-123.579 64.668-193.455 64.676-72.74 0.001-143.305-24.609-200.045-69.768s-96.262-108.166-112.042-178.618l-90.287-289.709c-5.316-17.104-6.511-35.208-3.489-52.855 3.021-17.645 10.176-34.342 20.888-48.742s24.68-26.112 40.783-34.176c16.102-8.070 33.89-12.275 51.93-12.282zM323.741 152.672c8.818-43.091 32.378-81.824 66.687-109.651 34.31-27.821 77.259-43.021 121.571-43.021s87.261 15.2 121.571 43.021c34.307 27.827 57.872 66.56 66.685 109.651h-376.515z" />
<glyph unicode="&#xe90c;" d="M924.013 291.277l-94.566 349.718c-20.192 74.809-64.192 140.539-124.998 186.727s-134.922 70.181-210.551 68.16c-75.629-2.021-148.426-29.94-206.805-79.314s-98.986-117.364-115.356-193.151l-73.144-337.741c-3.539-16.358-3.453-33.331 0.253-49.651 3.706-16.326 10.936-31.584 21.157-44.659s23.173-23.629 37.9-30.88c14.726-7.251 30.852-11.021 47.187-11.021h131.193c8.348-42.182 30.652-80.109 63.132-107.347s73.14-42.118 115.090-42.118c41.949 0 82.609 14.88 115.089 42.118s54.785 65.165 63.131 107.347h126.214c16.806 0.006 33.382 4 48.442 11.661 15.053 7.667 28.186 18.797 38.355 32.525 10.176 13.722 17.12 29.677 20.301 46.611 3.174 16.934 2.458 34.394-2.022 51.014zM514.503 74.822c-22.487 0.096-44.397 7.322-62.73 20.678-18.334 13.363-32.197 32.211-39.693 53.965h204.846c-7.496-21.754-21.359-40.602-39.693-53.965-18.334-13.357-40.243-20.582-62.73-20.678zM847.853 238.842c-3.398-4.614-7.795-8.352-12.845-10.912-5.056-2.56-10.618-3.872-16.256-3.827h-613.663c-5.446 0-10.823 1.254-15.733 3.674s-9.228 5.939-12.635 10.298c-3.407 4.358-5.817 9.446-7.052 14.893-1.234 5.44-1.261 11.098-0.079 16.55l73.144 337.741c12.888 59.479 44.785 112.831 90.618 151.574s102.975 60.654 162.339 62.25c59.364 1.596 117.545-17.216 165.295-53.443 47.744-36.228 82.323-87.793 98.227-146.498l94.566-349.717c1.542-5.53 1.811-11.354 0.781-17.011-1.024-5.651-3.328-10.982-6.707-15.571z" />
<glyph unicode="&#xe90d;" d="M896 800c0-88.366-71.634-160-160-160s-160 71.634-160 160c0 88.366 71.634 160 160 160s160-71.634 160-160z" />
<glyph unicode="&#xe90e;" glyph-name="ico-ring" d="M924.013 291.277l-94.566 349.718c-20.192 74.809-64.192 140.539-124.998 186.727s-134.922 70.181-210.551 68.16c-75.629-2.021-148.426-29.94-206.805-79.314s-98.986-117.364-115.356-193.151l-73.144-337.741c-3.539-16.358-3.453-33.331 0.253-49.651 3.706-16.326 10.936-31.584 21.157-44.659s23.173-23.629 37.9-30.88c14.726-7.251 30.852-11.021 47.187-11.021h131.193c8.348-42.182 30.652-80.109 63.132-107.347s73.14-42.118 115.090-42.118c41.949 0 82.609 14.88 115.089 42.118s54.785 65.165 63.131 107.347h126.214c16.806 0.006 33.382 4 48.442 11.661 15.053 7.667 28.186 18.797 38.355 32.525 10.176 13.722 17.12 29.677 20.301 46.611 3.174 16.934 2.458 34.394-2.022 51.014zM514.503 74.822c-22.487 0.096-44.397 7.322-62.73 20.678-18.334 13.363-32.197 32.211-39.693 53.965h204.846c-7.496-21.754-21.359-40.602-39.693-53.965-18.334-13.357-40.243-20.582-62.73-20.678zM847.853 238.842c-3.398-4.614-7.795-8.352-12.845-10.912-5.056-2.56-10.618-3.872-16.256-3.827h-613.663c-5.446 0-10.823 1.254-15.733 3.674s-9.228 5.939-12.635 10.298c-3.407 4.358-5.817 9.446-7.052 14.893-1.234 5.44-1.261 11.098-0.079 16.55l73.144 337.741c12.888 59.479 44.785 112.831 90.618 151.574s102.975 60.654 162.339 62.25c59.364 1.596 117.545-17.216 165.295-53.443 47.744-36.228 82.323-87.793 98.227-146.498l94.566-349.717c1.542-5.53 1.811-11.354 0.781-17.011-1.024-5.651-3.328-10.982-6.707-15.571z" />
<glyph unicode="&#xe90f;" glyph-name="ico-arrow-defult" d="M657.030 331.72l-245.714-251.772c-10.030-10.214-23.598-15.949-37.741-15.949s-27.711 5.734-37.741 15.949c-5.018 5.101-9 11.168-11.718 17.85-2.718 6.688-4.117 13.856-4.117 21.094 0 7.245 1.399 14.413 4.117 21.094 2.717 6.688 6.7 12.755 11.718 17.856l246.252 251.219c5.018 5.099 9 11.165 11.718 17.85s4.117 13.854 4.117 21.095c0 7.241-1.399 14.41-4.117 21.094s-6.7 12.751-11.718 17.85l-246.252 251.222c-10.081 10.256-15.772 24.195-15.822 38.751s5.545 28.536 15.555 38.864c10.010 10.329 23.613 16.161 37.819 16.212s27.85-5.681 37.93-15.937l245.714-251.77c30.080-30.854 46.97-72.679 46.97-116.286s-16.89-85.432-46.97-116.286z" />
<glyph unicode="&#xe910;" glyph-name="ico-arrow-back" d="M841.146 511.718h-548.574l180.48 210.712c5.142 5.954 9.222 13.037 12.008 20.842s4.219 16.176 4.219 24.631c0 8.454-1.434 16.826-4.219 24.63s-6.866 14.888-12.008 20.842c-10.278 11.928-24.182 18.624-38.675 18.624s-28.396-6.696-38.674-18.624l-235.338-275.398c-20.604-23.912-32.243-56.388-32.365-90.305 0.267-33.695 11.896-65.91 32.365-89.665l235.338-275.396c5.115-5.933 11.18-10.624 17.849-13.818s13.811-4.826 21.019-4.794c7.208 0.032 14.34 1.715 20.99 4.966 6.65 3.245 12.686 7.994 17.764 13.965s9.101 13.050 11.836 20.838c2.735 7.782 4.129 16.122 4.104 24.538s-1.47 16.742-4.252 24.506c-2.782 7.763-6.846 14.81-11.961 20.742l-180.48 210.071h548.574c14.547 0 28.499 6.748 38.784 18.759 10.291 12.011 16.070 28.301 16.070 45.287s-5.779 33.277-16.070 45.288c-10.285 12.011-24.237 18.758-38.784 18.758z" />
<glyph unicode="&#xe911;" glyph-name="ico-calender-on" d="M232.727 285.091c0.037-30.85 12.309-60.425 34.122-82.241 21.816-21.814 51.391-34.085 82.241-34.122h325.818c30.85 0.037 60.425 12.309 82.241 34.122 21.814 21.816 34.085 51.391 34.122 82.241v209.455h-558.545v-209.455zM628.364 389.818c6.905 0 13.654-2.048 19.395-5.883 5.739-3.835 10.214-9.288 12.856-15.667s3.335-13.398 1.987-20.168c-1.347-6.772-4.673-12.993-9.553-17.876-4.883-4.88-11.103-8.206-17.876-9.553-6.77-1.347-13.789-0.656-20.168 1.987-6.379 2.641-11.832 7.117-15.667 12.856-3.835 5.741-5.883 12.49-5.883 19.395 0 9.258 3.677 18.139 10.224 24.685s15.427 10.224 24.685 10.224zM512 389.818c6.905 0 13.654-2.048 19.395-5.883 5.739-3.835 10.214-9.288 12.856-15.667 2.644-6.379 3.335-13.398 1.987-20.168-1.347-6.772-4.673-12.993-9.553-17.876-4.883-4.88-11.103-8.206-17.876-9.553-6.77-1.347-13.789-0.656-20.168 1.987-6.379 2.641-11.832 7.117-15.667 12.856-3.835 5.741-5.883 12.49-5.883 19.395 0 9.258 3.677 18.139 10.224 24.685s15.427 10.224 24.685 10.224zM395.636 389.818c6.905 0 13.654-2.048 19.395-5.883 5.739-3.835 10.214-9.288 12.856-15.667 2.644-6.379 3.335-13.398 1.987-20.168-1.347-6.772-4.673-12.993-9.553-17.876-4.883-4.88-11.103-8.206-17.876-9.553-6.77-1.347-13.789-0.656-20.168 1.987-6.379 2.641-11.832 7.117-15.667 12.856-3.835 5.741-5.883 12.49-5.883 19.395 0 9.258 3.677 18.139 10.224 24.685s15.427 10.224 24.685 10.224zM674.909 680.727h-23.273v23.273c0 6.172-2.453 12.093-6.817 16.456s-10.284 6.817-16.456 6.817c-6.172 0-12.093-2.453-16.456-6.817s-6.817-10.284-6.817-16.456v-23.273h-186.182v23.273c0 6.172-2.453 12.093-6.817 16.456s-10.284 6.817-16.456 6.817c-6.172 0-12.093-2.453-16.456-6.817s-6.817-10.284-6.817-16.456v-23.273h-23.273c-30.85-0.037-60.425-12.309-82.241-34.122-21.814-21.816-34.085-51.391-34.122-82.241v-23.273h558.545v23.273c-0.037 30.85-12.309 60.425-34.122 82.241-21.816 21.814-51.391 34.085-82.241 34.122z" />
<glyph unicode="&#xe912;" glyph-name="ico-calender" d="M674.909 680.727h-23.273v23.273c0 6.172-2.453 12.093-6.817 16.456s-10.284 6.817-16.456 6.817c-6.172 0-12.093-2.453-16.456-6.817s-6.817-10.284-6.817-16.456v-23.273h-186.182v23.273c0 6.172-2.453 12.093-6.817 16.456s-10.284 6.817-16.456 6.817c-6.172 0-12.093-2.453-16.456-6.817s-6.817-10.284-6.817-16.456v-23.273h-23.273c-30.85-0.037-60.425-12.309-82.241-34.122-21.814-21.816-34.085-51.391-34.122-82.241v-279.273c0.037-30.85 12.309-60.425 34.122-82.241 21.816-21.814 51.391-34.085 82.241-34.122h325.818c30.85 0.037 60.425 12.309 82.241 34.122 21.814 21.816 34.085 51.391 34.122 82.241v279.273c-0.037 30.85-12.309 60.425-34.122 82.241-21.816 21.814-51.391 34.085-82.241 34.122zM279.273 564.364c0 18.516 7.357 36.275 20.45 49.368s30.853 20.45 49.368 20.45h325.818c18.516 0 36.275-7.357 49.368-20.45s20.45-30.853 20.45-49.368v-23.273h-465.455v23.273zM674.909 215.273h-325.818c-18.516 0-36.275 7.357-49.368 20.45s-20.45 30.853-20.45 49.368v209.455h465.455v-209.455c0-18.516-7.357-36.275-20.45-49.368s-30.853-20.45-49.368-20.45zM512 343.273c19.279 0 34.909 15.63 34.909 34.909s-15.63 34.909-34.909 34.909c-19.279 0-34.909-15.63-34.909-34.909s15.63-34.909 34.909-34.909zM395.636 343.273c19.279 0 34.909 15.63 34.909 34.909s-15.63 34.909-34.909 34.909c-19.279 0-34.909-15.63-34.909-34.909s15.63-34.909 34.909-34.909zM628.364 343.273c19.279 0 34.909 15.63 34.909 34.909s-15.63 34.909-34.909 34.909c-19.279 0-34.909-15.63-34.909-34.909s15.63-34.909 34.909-34.909z" />
<glyph unicode="&#xe913;" glyph-name="ico-check2-active" d="M512 896c-247.035 0-448-200.965-448-448s200.965-448 448-448c247.034 0 448 200.966 448 448s-200.966 448-448 448zM508.603 320.357c-14.448-14.45-33.451-21.65-52.528-21.65s-38.267 7.277-52.864 21.837l-103.862 100.651 52.006 53.648 104.272-101.062 216.866 212.838 52.416-53.2-216.306-213.062z" />
<glyph unicode="&#xe914;" glyph-name="ico-check2" d="M672.461 586.581l52.416-53.2-216.274-213.061c-14.448-14.445-33.451-21.651-52.528-21.651s-38.267 7.277-52.864 21.838l-103.862 100.65 52.006 53.648 104.272-101.061 216.834 212.837zM960 448c0-247.034-200.966-448-448-448s-448 200.966-448 448c0 247.035 200.965 448 448 448s448-200.965 448-448zM885.331 448c0 205.856-167.475 373.333-373.331 373.333s-373.333-167.477-373.333-373.333c0-205.856 167.477-373.331 373.333-373.331s373.331 167.475 373.331 373.331z" />
<glyph unicode="&#xe915;" glyph-name="ico-clock2-active" d="M512 727.273c-55.235 0-109.228-16.379-155.155-47.067-45.926-30.685-81.722-74.303-102.858-125.333-21.139-51.030-26.669-107.183-15.893-161.357s37.374-103.936 76.43-142.992c39.059-39.056 88.82-65.655 142.992-76.43 54.174-10.775 110.327-5.246 161.357 15.891 51.030 21.139 94.648 56.934 125.333 102.861 30.687 45.924 47.067 99.919 47.067 155.155-0.079 74.042-29.528 145.031-81.885 197.388s-123.345 81.806-197.388 81.885zM535.273 450.816c0.002-3.945-0.998-7.827-2.907-11.278-1.911-3.451-4.666-6.363-8.008-8.457l-89.367-55.855c-2.597-1.622-5.49-2.718-8.511-3.223s-6.111-0.41-9.097 0.279c-2.984 0.689-5.802 1.96-8.297 3.738-2.493 1.78-4.613 4.033-6.235 6.63s-2.718 5.49-3.223 8.511c-0.505 3.021-0.41 6.111 0.279 9.097 0.689 2.984 1.96 5.804 3.738 8.297 1.78 2.493 4.033 4.613 6.63 6.235l78.452 48.919v100.655c0 6.172 2.453 12.093 6.817 16.456s10.284 6.817 16.456 6.817c6.172 0 12.093-2.453 16.456-6.817s6.817-10.284 6.817-16.456v-113.548z" />
<glyph unicode="&#xe916;" glyph-name="ico-clock2" d="M512 727.273c154.238 0 279.273-125.035 279.273-279.273s-125.035-279.273-279.273-279.273c-154.238 0-279.273 125.035-279.273 279.273s125.035 279.273 279.273 279.273zM512 674.909c-125.319 0-226.909-101.59-226.909-226.909 0-125.317 101.59-226.909 226.909-226.909s226.909 101.59 226.909 226.909c0 125.319-101.59 226.909-226.909 226.909zM512 631.273c14.459 0 26.182-11.722 26.182-26.182v-174.545c0-9.917-5.609-18.974-14.478-23.41l-104.727-52.364c-12.933-6.465-28.646-1.226-35.114 11.706-6.465 12.933-1.229 28.646 11.706 35.114l90.249 45.135v158.364c0 14.459 11.722 26.182 26.182 26.182z" />
<glyph unicode="&#xe917;" glyph-name="ico-favorite" d="M717.248 800c-42.022-0.584-83.126-11.075-119.164-30.41s-65.732-46.833-86.084-79.715c-20.352 32.881-50.046 60.379-86.084 79.715s-77.144 29.826-119.166 30.41c-66.989-2.603-130.102-28.808-175.553-72.89s-69.544-102.46-67.016-162.377c0-151.739 178.605-317.462 328.401-429.821 33.445-25.133 75.732-38.912 119.418-38.912s85.973 13.779 119.418 38.912c149.798 112.358 328.403 278.082 328.403 429.821 2.528 59.917-21.568 118.294-67.014 162.377-45.453 44.083-108.57 70.287-175.558 72.89zM583.464 185.971c-20.003-15.066-45.313-23.328-71.464-23.328s-51.461 8.262-71.464 23.328c-191.741 143.862-301.718 281.885-301.718 378.762-2.551 42.224 13.672 83.637 45.132 115.208s75.602 50.736 122.801 53.317c47.199-2.581 91.341-21.747 122.801-53.317s47.683-72.984 45.132-115.208c0-8.851 3.932-17.339 10.931-23.597s16.49-9.774 26.388-9.774c9.898 0 19.389 3.516 26.388 9.774s10.931 14.746 10.931 23.597c-2.551 42.224 13.672 83.637 45.132 115.208s75.604 50.736 122.798 53.317c47.2-2.581 91.347-21.747 122.803-53.317 31.462-31.571 47.68-72.984 45.133-115.208 0-96.877-109.978-234.9-301.72-378.627v-0.134z" />
<glyph unicode="&#xe918;" glyph-name="ico-favorite2-active" d="M640.002 692.48c-26.207-0.405-51.842-7.692-74.317-21.122-22.474-13.428-40.993-32.526-53.686-55.363-12.693 22.838-31.211 41.935-53.686 55.363-22.474 13.431-48.109 20.717-74.317 21.122-41.777-1.808-81.136-20.008-109.482-50.625-28.344-30.618-43.369-71.163-41.792-112.777 0-105.391 111.385-220.493 204.804-298.531 20.857-17.457 47.227-27.027 74.473-27.027s53.616 9.57 74.473 27.027c93.419 78.038 204.805 193.14 204.805 298.531 1.576 41.614-13.449 82.16-41.795 112.777-28.344 30.618-67.703 48.817-109.48 50.625z" />
<glyph unicode="&#xe919;" glyph-name="ico-favorite2" d="M640.112 693.481c-26.205-0.407-51.84-7.724-74.314-21.208s-40.993-32.661-53.686-55.592c-12.691 22.931-31.209 42.107-53.683 55.592s-48.109 20.801-74.317 21.208c-41.775-1.815-81.136-20.091-109.48-50.835-28.344-30.741-43.369-71.454-41.793-113.238 0-105.821 111.383-221.393 204.8-299.753 20.859-17.529 47.23-27.138 74.473-27.138 27.245 0 53.616 9.609 74.473 27.138 93.417 78.359 204.8 193.932 204.8 299.753 1.578 41.784-13.447 82.497-41.791 113.238-28.346 30.743-67.705 49.019-109.482 50.835zM556.679 265.263c-12.474-10.505-28.258-16.265-44.567-16.265-16.307 0-32.091 5.76-44.567 16.265-119.575 100.329-188.16 196.585-188.16 264.145-1.59 29.447 8.527 58.326 28.146 80.344 19.619 22.016 47.148 35.382 76.581 37.183 29.435-1.801 56.965-15.167 76.584-37.183 19.619-22.018 29.736-50.897 28.144-80.344 0-6.172 2.453-12.093 6.817-16.456 4.366-4.366 10.284-6.817 16.456-6.817 6.174 0 12.093 2.451 16.456 6.817 4.366 4.364 6.817 10.284 6.817 16.456-1.59 29.447 8.527 58.326 28.146 80.344 19.619 22.016 47.148 35.382 76.581 37.183 29.435-1.801 56.965-15.167 76.584-37.183 19.619-22.018 29.736-50.897 28.144-80.344 0-67.561-68.585-163.817-188.16-264.052v-0.093z" />
<glyph unicode="&#xe91a;" glyph-name="ico-favorite-active" d="M717.248 800c-42.022-0.584-83.126-11.075-119.164-30.41s-65.732-46.833-86.084-79.715c-20.352 32.881-50.046 60.379-86.084 79.715s-77.144 29.826-119.166 30.41c-66.989-2.603-130.102-28.808-175.553-72.89s-69.544-102.46-67.016-162.377c0-151.739 178.605-317.462 328.401-429.821 33.445-25.133 75.732-38.912 119.418-38.912s85.973 13.779 119.418 38.912c149.798 112.358 328.403 278.082 328.403 429.821 2.528 59.917-21.568 118.294-67.014 162.377-45.453 44.083-108.57 70.287-175.558 72.89z" />
<glyph unicode="&#xe91b;" glyph-name="ico-home-active" d="M628.364 308.71v-139.636h93.091c38.558 0 69.818 31.26 69.818 69.818v212.271c0.005 12.090-4.694 23.71-13.103 32.396l-197.772 213.809c-34.895 37.755-93.791 40.074-131.549 5.178-1.792-1.659-3.521-3.386-5.178-5.178l-197.423-213.739c-8.664-8.723-13.525-20.52-13.521-32.815v-211.921c0-38.558 31.26-69.818 69.818-69.818h93.091v139.636c0.435 63.462 51.672 115.284 113.534 116.776 63.933 1.543 118.707-51.163 119.194-116.776z" />
<glyph unicode="&#xe91c;" glyph-name="ico-home" d="M770.816 516.585l-176.524 176.652c-21.848 21.797-51.44 34.036-82.292 34.036s-60.444-12.239-82.292-34.036l-176.524-176.652c-6.507-6.47-11.664-14.166-15.176-22.644s-5.306-17.571-5.281-26.747v-228.606c0-18.527 7.357-36.296 20.45-49.399 13.093-13.1 30.853-20.461 49.368-20.461h418.909c18.516 0 36.275 7.361 49.368 20.461 13.093 13.103 20.45 30.871 20.45 49.399v228.606c0.026 9.176-1.769 18.269-5.281 26.747s-8.669 16.175-15.176 22.644zM581.818 215.301h-139.636v91.611c0 18.527 7.357 36.296 20.45 49.396 13.093 13.103 30.853 20.464 49.368 20.464s36.275-7.361 49.368-20.464c13.093-13.1 20.45-30.869 20.45-49.396v-91.611zM744.727 238.587c0-6.177-2.453-12.099-6.817-16.465-4.364-4.368-10.284-6.821-16.456-6.821h-93.091v91.611c0 30.878-12.26 60.495-34.083 82.33-21.823 21.837-51.419 34.104-82.281 34.104s-60.458-12.267-82.281-34.104c-21.823-21.834-34.083-51.451-34.083-82.33v-91.611h-93.091c-6.172 0-12.093 2.453-16.456 6.821-4.364 4.366-6.817 10.289-6.817 16.465v228.606c0.021 6.172 2.472 12.086 6.819 16.463l176.524 176.582c13.119 13.068 30.876 20.401 49.385 20.401s36.266-7.333 49.385-20.401l176.524-176.652c4.331-4.361 6.779-10.247 6.819-16.393v-228.606z" />
<glyph unicode="&#xe91d;" glyph-name="ico-my-active" d="M512 448c77.119 0 139.636 62.518 139.636 139.636s-62.518 139.636-139.636 139.636c-77.119 0-139.636-62.518-139.636-139.636s62.518-139.636 139.636-139.636zM512 401.455c-115.626-0.128-209.327-93.829-209.455-209.455 0-12.854 10.419-23.273 23.273-23.273h372.364c12.851 0 23.273 10.419 23.273 23.273-0.128 115.626-93.829 209.327-209.455 209.455z" />
<glyph unicode="&#xe91e;" glyph-name="ico-my" d="M512 448c27.618 0 54.614 8.19 77.577 23.533s40.862 37.15 51.43 62.666c10.568 25.516 13.333 53.592 7.945 80.677-5.388 27.087-18.686 51.968-38.216 71.496-19.528 19.53-44.409 32.829-71.496 38.216-27.085 5.388-55.161 2.623-80.677-7.945-25.516-10.57-47.323-28.467-62.666-51.43s-23.533-49.96-23.533-77.577c0.037-37.022 14.76-72.518 40.939-98.697s61.675-40.902 98.697-40.939zM512 680.727c18.411 0 36.41-5.46 51.719-15.688s27.241-24.769 34.285-41.779c7.047-17.010 8.89-35.726 5.297-53.786-3.591-18.057-12.458-34.644-25.477-47.663s-29.605-21.886-47.663-25.477c-18.060-3.593-36.776-1.75-53.786 5.297-17.010 7.045-31.551 18.977-41.779 34.285s-15.688 33.308-15.688 51.719c0 24.69 9.807 48.368 27.266 65.825 17.457 17.459 41.135 27.266 65.825 27.266zM512 401.455c-55.531-0.061-108.772-22.149-148.038-61.417-39.268-39.266-61.356-92.507-61.417-148.038 0-6.172 2.453-12.093 6.817-16.456s10.284-6.817 16.456-6.817c6.172 0 12.093 2.453 16.456 6.817s6.817 10.284 6.817 16.456c0 43.206 17.164 84.643 47.716 115.193 30.55 30.552 71.987 47.716 115.193 47.716s84.643-17.164 115.193-47.716c30.552-30.55 47.716-71.987 47.716-115.193 0-6.172 2.453-12.093 6.817-16.456s10.284-6.817 16.456-6.817c6.172 0 12.093 2.453 16.456 6.817s6.817 10.284 6.817 16.456c-0.061 55.531-22.149 108.772-61.417 148.038-39.266 39.268-92.507 61.356-148.038 61.417z" />
<glyph unicode="&#xe91f;" glyph-name="ico-setting-active" d="M270.127 308.364c19.251-33.41 61.94-44.888 95.351-25.64 0.023 0.014 0.044 0.028 0.067 0.040l10.356 5.981c19.549-16.724 42.019-29.696 66.281-38.26v-11.939c0-38.558 31.258-69.818 69.818-69.818 38.558 0 69.818 31.26 69.818 69.818v11.939c24.264 8.578 46.736 21.565 66.281 38.307l10.403-6.004c33.417-19.279 76.139-7.817 95.418 25.6 19.279 33.42 7.817 76.139-25.6 95.418l-10.333 5.958c4.65 25.311 4.65 51.258 0 76.567l10.333 5.958c33.417 19.281 44.879 62.001 25.6 95.418-19.279 33.42-62.001 44.881-95.418 25.602l-10.356-5.983c-19.57 16.705-42.054 29.654-66.327 38.191v11.939c0 38.558-31.26 69.818-69.818 69.818-38.561 0-69.818-31.26-69.818-69.818v-11.939c-24.264-8.578-46.736-21.565-66.281-38.307l-10.403 6.028c-33.42 19.279-76.139 7.817-95.418-25.6s-7.82-76.139 25.6-95.418l10.333-5.958c-4.652-25.309-4.652-51.256 0-76.567l-10.333-5.958c-33.327-19.33-44.751-61.968-25.553-95.372zM512 541.091c51.412 0 93.091-41.679 93.091-93.091s-41.679-93.091-93.091-93.091c-51.412 0-93.091 41.679-93.091 93.091s41.679 93.091 93.091 93.091z" />
<glyph unicode="&#xe920;" glyph-name="ico-setting" d="M512 541.091c-18.411 0-36.41-5.46-51.719-15.688s-27.241-24.769-34.285-41.779c-7.047-17.010-8.89-35.726-5.297-53.786 3.591-18.057 12.458-34.644 25.477-47.663s29.605-21.886 47.663-25.477c18.060-3.593 36.776-1.75 53.786 5.297 17.010 7.045 31.551 18.977 41.779 34.285s15.688 33.308 15.688 51.719c0 24.69-9.807 48.368-27.266 65.825-17.457 17.459-41.135 27.266-65.825 27.266zM512 401.455c-9.207 0-18.204 2.73-25.858 7.845-7.654 5.113-13.622 12.383-17.145 20.887-3.521 8.506-4.443 17.864-2.648 26.894 1.797 9.027 6.23 17.322 12.739 23.831s14.804 10.943 23.831 12.739c9.030 1.794 18.388 0.873 26.894-2.648 8.504-3.523 15.774-9.491 20.887-17.145 5.115-7.654 7.845-16.652 7.845-25.858 0-12.344-4.904-24.183-13.633-32.912s-20.568-13.633-32.912-13.633zM728.297 403.782l-10.333 5.958c4.652 25.311 4.652 51.256 0 76.567l10.333 5.958c7.948 4.585 14.911 10.689 20.499 17.964 5.588 7.277 9.686 15.583 12.065 24.443 2.376 8.86 2.986 18.102 1.79 27.197-1.194 9.097-4.168 17.869-8.753 25.814s-10.689 14.911-17.964 20.499c-7.277 5.588-15.581 9.686-24.443 12.062-8.86 2.378-18.102 2.986-27.197 1.792-9.097-1.194-17.866-4.168-25.814-8.753l-10.356-5.981c-19.561 16.712-42.038 29.668-66.304 38.214v11.939c0 18.516-7.357 36.275-20.45 49.368s-30.85 20.45-49.368 20.45c-18.516 0-36.275-7.357-49.368-20.45s-20.45-30.853-20.45-49.368v-11.939c-24.264-8.578-46.734-21.565-66.281-38.307l-10.403 6.028c-16.049 9.258-35.116 11.762-53.011 6.961s-33.15-16.512-42.408-32.561c-9.258-16.049-11.762-35.116-6.961-53.011s16.512-33.15 32.561-42.408l10.333-5.958c-4.652-25.311-4.652-51.256 0-76.567l-10.333-5.958c-16.049-9.258-27.76-24.513-32.561-42.408s-2.297-36.962 6.961-53.011c9.258-16.049 24.513-27.76 42.408-32.561s36.962-2.297 53.011 6.961l10.356 5.981c19.568-16.714 42.054-29.67 66.327-38.214v-11.939c0-18.518 7.357-36.275 20.45-49.368s30.853-20.45 49.368-20.45c18.518 0 36.275 7.357 49.368 20.45s20.45 30.85 20.45 49.368v11.939c24.264 8.578 46.736 21.565 66.281 38.307l10.403-6.004c16.049-9.258 35.116-11.762 53.011-6.961s33.15 16.512 42.408 32.561c9.258 16.049 11.762 35.116 6.963 53.011-4.801 17.894-16.514 33.15-32.563 42.408l-0.023-0.023zM668.998 491.66c7.882-28.558 7.882-58.715 0-87.273-1.375-4.971-1.061-10.256 0.894-15.030 1.953-4.773 5.439-8.762 9.905-11.338l25.228-14.569c5.348-3.086 9.251-8.171 10.852-14.134 1.599-5.965 0.763-12.321-2.323-17.669s-8.171-9.251-14.134-10.852c-5.965-1.599-12.321-0.763-17.669 2.323l-25.274 14.615c-4.471 2.59-9.677 3.617-14.794 2.923-5.12-0.696-9.863-3.074-13.482-6.763-20.715-21.148-46.811-36.236-75.473-43.636-5.004-1.287-9.435-4.201-12.6-8.283-3.165-4.084-4.88-9.102-4.878-14.269v-29.161c0-6.172-2.451-12.093-6.817-16.456-4.364-4.364-10.284-6.817-16.456-6.817s-12.093 2.453-16.456 6.817c-4.364 4.364-6.817 10.284-6.817 16.456v29.137c0.002 5.167-1.713 10.184-4.878 14.269-3.165 4.082-7.596 6.996-12.6 8.283-28.663 7.431-54.754 22.551-75.45 43.729-3.619 3.689-8.362 6.067-13.48 6.763-5.12 0.694-10.326-0.333-14.797-2.923l-25.228-14.592c-2.648-1.552-5.576-2.565-8.618-2.981-3.039-0.417-6.132-0.226-9.1 0.559s-5.751 2.148-8.19 4.012c-2.437 1.864-4.482 4.194-6.018 6.851-1.534 2.658-2.527 5.592-2.923 8.637s-0.186 6.135 0.619 9.097c0.805 2.963 2.185 5.734 4.066 8.162 1.88 2.425 4.224 4.454 6.891 5.972l25.228 14.569c4.468 2.576 7.952 6.565 9.907 11.338s2.267 10.058 0.891 15.030c-7.88 28.558-7.88 58.715 0 87.273 1.352 4.959 1.022 10.228-0.936 14.981s-5.434 8.725-9.886 11.294l-25.228 14.569c-5.348 3.086-9.251 8.171-10.85 14.134-1.601 5.965-0.766 12.321 2.32 17.669s8.171 9.251 14.136 10.852c5.962 1.599 12.318 0.763 17.666-2.323l25.274-14.615c4.459-2.595 9.654-3.635 14.767-2.958 5.115 0.68 9.858 3.037 13.487 6.705 20.715 21.148 46.811 36.236 75.473 43.636 5.018 1.289 9.463 4.217 12.628 8.32 3.167 4.101 4.873 9.144 4.85 14.324v29.137c0 6.172 2.453 12.093 6.817 16.456s10.284 6.817 16.456 6.817c6.172 0 12.093-2.453 16.456-6.817 4.366-4.364 6.817-10.284 6.817-16.456v-29.137c-0.002-5.167 1.713-10.184 4.878-14.269 3.165-4.082 7.596-6.996 12.6-8.283 28.672-7.429 54.77-22.549 75.473-43.729 3.619-3.689 8.362-6.067 13.482-6.763 5.118-0.694 10.324 0.333 14.794 2.923l25.228 14.592c2.648 1.552 5.576 2.565 8.618 2.981s6.135 0.226 9.102-0.559c2.967-0.784 5.748-2.148 8.187-4.012s4.482-4.194 6.018-6.851c1.534-2.658 2.527-5.592 2.923-8.637s0.186-6.135-0.619-9.097c-0.803-2.963-2.185-5.734-4.066-8.162-1.88-2.425-4.222-4.454-6.891-5.972l-25.228-14.569c-4.443-2.576-7.91-6.551-9.858-11.304-1.95-4.752-2.271-9.993-0.917-14.948z" />
<glyph unicode="&#xe921;" glyph-name="ico-ticket-active" d="M721.455 238.545h-418.909c-38.563 0-69.818 31.255-69.818 69.818v93.091l25.507-0.070c25.6 0.675 46.22 19.898 46.22 45.661s-20.573 46.755-46.127 47.476l-25.6-0.070v93.184c0 38.563 31.255 69.818 69.818 69.818h418.909c38.563 0 69.818-31.255 69.818-69.818v-93.091h-20.666c-23.203 0-44.73-15.802-48.5-38.679-4.794-29.137 17.641-54.412 45.894-54.412h23.273v-93.091c0-38.563-31.255-69.818-69.818-69.818z" />
<glyph unicode="&#xe922;" glyph-name="ico-ticket" d="M721.455 238.545h-418.909c-38.563 0-69.818 31.255-69.818 69.818v91.276l25.507-0.070c25.6 0.675 46.22 21.713 46.22 47.476s-20.573 46.755-46.127 47.476l-25.6-0.070v93.184c0 38.563 31.255 69.818 69.818 69.818h418.909c38.563 0 69.818-31.255 69.818-69.818v-93.091h-20.666c-23.203 0-44.73-15.802-48.5-38.679-4.794-29.137 17.641-54.412 45.894-54.412h23.273v-93.091c0-38.563-31.255-69.818-69.818-69.818zM302.545 285.091h418.909c12.847 0 23.273 10.426 23.273 23.273v49.478c-40.099 10.356-69.818 46.848-69.818 90.159s29.719 79.779 69.818 90.159v49.478c0 12.847-10.426 23.273-23.273 23.273h-418.909c-12.847 0-23.273-10.426-23.273-23.273v-49.222c41.123-10.054 71.727-47.197 71.727-91.369s-30.604-81.315-71.727-91.369v-47.313c0-12.847 10.426-23.273 23.273-23.273z" />
<glyph unicode="&#xe923;" glyph-name="ico-search" d="M881.984 145.754l-148.659 148.704c111.232 148.636 80.902 359.292-67.738 470.515-148.648 111.223-359.322 80.896-470.554-67.737s-80.903-359.289 67.742-470.509c119.404-89.344 283.404-89.344 402.812 0l148.717-148.71c18.688-18.688 48.992-18.688 67.68 0s18.688 48.986 0 67.674v0.064zM465.42 255.424c-132.109 0-239.203 107.087-239.203 239.185s107.094 239.183 239.203 239.183c132.109 0 239.201-107.085 239.201-239.183-0.141-132.038-107.151-239.044-239.201-239.185z" />
</font>
</defs>
</svg>
